<mxfile host="app.diagrams.net" modified="2023-06-04T21:08:50.450Z" agent="Mozilla/5.0 (Windows NT 10.0; Win64; x64; rv:109.0) Gecko/20100101 Firefox/113.0" etag="qWM2l35jcRw3xgDv2wE1" version="21.2.9" type="device">
  <diagram name="Page-1" id="m7Bp2A6nWGBkNWk2U6i1">
    <mxGraphModel dx="697" dy="430" grid="1" gridSize="10" guides="1" tooltips="1" connect="1" arrows="1" fold="1" page="1" pageScale="1" pageWidth="827" pageHeight="1169" math="0" shadow="0">
      <root>
        <mxCell id="0" />
        <mxCell id="1" parent="0" />
        <mxCell id="lsjaKCytuHzk95r_xpoM-2" value="" style="edgeStyle=none;curved=0;rounded=0;orthogonalLoop=1;jettySize=auto;html=1;fontSize=12;startSize=8;endSize=8;" parent="1" source="rMrMTFMyCD8p0BETihjF-2" target="lsjaKCytuHzk95r_xpoM-1" edge="1">
          <mxGeometry relative="1" as="geometry">
            <Array as="points">
              <mxPoint x="135" y="470" />
              <mxPoint x="160" y="470" />
            </Array>
          </mxGeometry>
        </mxCell>
        <mxCell id="rMrMTFMyCD8p0BETihjF-2" value="Pilote LED Bleu" style="rounded=0;whiteSpace=wrap;html=1;" parent="1" vertex="1">
          <mxGeometry x="100" y="520" width="70" height="40" as="geometry" />
        </mxCell>
        <mxCell id="rMrMTFMyCD8p0BETihjF-20" style="edgeStyle=orthogonalEdgeStyle;rounded=0;orthogonalLoop=1;jettySize=auto;html=1;entryX=0.5;entryY=1;entryDx=0;entryDy=0;exitX=0.5;exitY=0;exitDx=0;exitDy=0;" parent="1" source="rMrMTFMyCD8p0BETihjF-3" target="rMrMTFMyCD8p0BETihjF-35" edge="1">
          <mxGeometry relative="1" as="geometry">
            <mxPoint x="240" y="440" as="targetPoint" />
            <Array as="points">
              <mxPoint x="319" y="480" />
              <mxPoint x="263" y="480" />
            </Array>
          </mxGeometry>
        </mxCell>
        <mxCell id="rMrMTFMyCD8p0BETihjF-3" value="Pilote&lt;br&gt;&amp;nbsp;ESP-NOW Porte" style="rounded=0;whiteSpace=wrap;html=1;" parent="1" vertex="1">
          <mxGeometry x="280" y="520" width="78" height="40" as="geometry" />
        </mxCell>
        <mxCell id="rMrMTFMyCD8p0BETihjF-25" style="edgeStyle=orthogonalEdgeStyle;rounded=0;orthogonalLoop=1;jettySize=auto;html=1;entryX=0.5;entryY=1;entryDx=0;entryDy=0;" parent="1" source="rMrMTFMyCD8p0BETihjF-7" target="rMrMTFMyCD8p0BETihjF-24" edge="1">
          <mxGeometry relative="1" as="geometry" />
        </mxCell>
        <mxCell id="rMrMTFMyCD8p0BETihjF-7" value="Pilote Switch 1" style="rounded=0;whiteSpace=wrap;html=1;" parent="1" vertex="1">
          <mxGeometry x="371" y="520" width="86" height="40" as="geometry" />
        </mxCell>
        <mxCell id="rMrMTFMyCD8p0BETihjF-12" value="Pilotes" style="text;html=1;strokeColor=none;fillColor=none;align=center;verticalAlign=middle;whiteSpace=wrap;rounded=0;" parent="1" vertex="1">
          <mxGeometry y="490" width="60" height="30" as="geometry" />
        </mxCell>
        <mxCell id="rMrMTFMyCD8p0BETihjF-13" value="Interfaces" style="text;html=1;strokeColor=none;fillColor=none;align=center;verticalAlign=middle;whiteSpace=wrap;rounded=0;" parent="1" vertex="1">
          <mxGeometry y="360" width="60" height="30" as="geometry" />
        </mxCell>
        <mxCell id="58lbwC3LxWV0aZRgjLdr-13" value="" style="edgeStyle=none;curved=1;rounded=0;orthogonalLoop=1;jettySize=auto;html=1;fontSize=12;startSize=8;endSize=8;" edge="1" parent="1" source="rMrMTFMyCD8p0BETihjF-14" target="rMrMTFMyCD8p0BETihjF-54">
          <mxGeometry relative="1" as="geometry" />
        </mxCell>
        <mxCell id="rMrMTFMyCD8p0BETihjF-14" value="&lt;div&gt;Interface LED Verte&lt;/div&gt;" style="rounded=0;whiteSpace=wrap;html=1;" parent="1" vertex="1">
          <mxGeometry x="29" y="400" width="82" height="40" as="geometry" />
        </mxCell>
        <mxCell id="rMrMTFMyCD8p0BETihjF-24" value="Interface Switch" style="rounded=0;whiteSpace=wrap;html=1;" parent="1" vertex="1">
          <mxGeometry x="300" y="400" width="100" height="40" as="geometry" />
        </mxCell>
        <mxCell id="rMrMTFMyCD8p0BETihjF-32" value="Processus" style="text;html=1;strokeColor=none;fillColor=none;align=center;verticalAlign=middle;whiteSpace=wrap;rounded=0;" parent="1" vertex="1">
          <mxGeometry x="20" y="150" width="60" height="30" as="geometry" />
        </mxCell>
        <mxCell id="58lbwC3LxWV0aZRgjLdr-20" style="edgeStyle=none;curved=0;rounded=0;orthogonalLoop=1;jettySize=auto;html=1;entryX=0;entryY=0.5;entryDx=0;entryDy=0;fontSize=12;startSize=8;endSize=8;" edge="1" parent="1" source="rMrMTFMyCD8p0BETihjF-35" target="58lbwC3LxWV0aZRgjLdr-11">
          <mxGeometry relative="1" as="geometry">
            <Array as="points">
              <mxPoint x="263" y="260" />
            </Array>
          </mxGeometry>
        </mxCell>
        <mxCell id="rMrMTFMyCD8p0BETihjF-35" value="Service Syncronisation des communications" style="rounded=0;whiteSpace=wrap;html=1;" parent="1" vertex="1">
          <mxGeometry x="188" y="330" width="150" height="40" as="geometry" />
        </mxCell>
        <mxCell id="rMrMTFMyCD8p0BETihjF-49" style="edgeStyle=orthogonalEdgeStyle;rounded=0;orthogonalLoop=1;jettySize=auto;html=1;entryX=0.5;entryY=1;entryDx=0;entryDy=0;" parent="1" source="rMrMTFMyCD8p0BETihjF-1" target="rMrMTFMyCD8p0BETihjF-14" edge="1">
          <mxGeometry relative="1" as="geometry" />
        </mxCell>
        <mxCell id="rMrMTFMyCD8p0BETihjF-1" value="Pilote LED verte" style="rounded=0;whiteSpace=wrap;html=1;" parent="1" vertex="1">
          <mxGeometry x="20" y="520" width="70" height="40" as="geometry" />
        </mxCell>
        <mxCell id="58lbwC3LxWV0aZRgjLdr-14" style="edgeStyle=none;curved=0;rounded=0;orthogonalLoop=1;jettySize=auto;html=1;entryX=0.25;entryY=1;entryDx=0;entryDy=0;fontSize=12;startSize=8;endSize=8;" edge="1" parent="1" source="rMrMTFMyCD8p0BETihjF-54" target="58lbwC3LxWV0aZRgjLdr-12">
          <mxGeometry relative="1" as="geometry">
            <Array as="points">
              <mxPoint x="71" y="220" />
              <mxPoint x="255" y="220" />
            </Array>
          </mxGeometry>
        </mxCell>
        <mxCell id="rMrMTFMyCD8p0BETihjF-54" value="Service Base de Temps" style="rounded=0;whiteSpace=wrap;html=1;" parent="1" vertex="1">
          <mxGeometry x="31" y="260" width="80" height="40" as="geometry" />
        </mxCell>
        <mxCell id="rMrMTFMyCD8p0BETihjF-73" value="" style="edgeStyle=orthogonalEdgeStyle;rounded=0;orthogonalLoop=1;jettySize=auto;html=1;" parent="1" source="rMrMTFMyCD8p0BETihjF-66" target="rMrMTFMyCD8p0BETihjF-70" edge="1">
          <mxGeometry relative="1" as="geometry" />
        </mxCell>
        <mxCell id="rMrMTFMyCD8p0BETihjF-66" value="Pilote I2C FT6236" style="rounded=0;whiteSpace=wrap;html=1;" parent="1" vertex="1">
          <mxGeometry x="500.5" y="520" width="62" height="40" as="geometry" />
        </mxCell>
        <mxCell id="58lbwC3LxWV0aZRgjLdr-18" style="edgeStyle=none;curved=0;rounded=0;orthogonalLoop=1;jettySize=auto;html=1;entryX=0.5;entryY=1;entryDx=0;entryDy=0;fontSize=12;startSize=8;endSize=8;" edge="1" parent="1" source="rMrMTFMyCD8p0BETihjF-70" target="58lbwC3LxWV0aZRgjLdr-12">
          <mxGeometry relative="1" as="geometry">
            <Array as="points">
              <mxPoint x="526" y="320" />
              <mxPoint x="330" y="320" />
            </Array>
          </mxGeometry>
        </mxCell>
        <mxCell id="rMrMTFMyCD8p0BETihjF-70" value="&lt;div&gt;InterfaceTactile&lt;/div&gt;" style="rounded=0;whiteSpace=wrap;html=1;" parent="1" vertex="1">
          <mxGeometry x="480" y="400" width="92.5" height="40" as="geometry" />
        </mxCell>
        <mxCell id="lsjaKCytuHzk95r_xpoM-1" value="&lt;div&gt;Interface LED Bleu&lt;/div&gt;" style="rounded=0;whiteSpace=wrap;html=1;" parent="1" vertex="1">
          <mxGeometry x="120" y="400" width="82" height="40" as="geometry" />
        </mxCell>
        <mxCell id="58lbwC3LxWV0aZRgjLdr-15" value="" style="edgeStyle=none;curved=1;rounded=0;orthogonalLoop=1;jettySize=auto;html=1;fontSize=12;startSize=8;endSize=8;" edge="1" parent="1" source="58lbwC3LxWV0aZRgjLdr-2" target="58lbwC3LxWV0aZRgjLdr-5">
          <mxGeometry relative="1" as="geometry" />
        </mxCell>
        <mxCell id="58lbwC3LxWV0aZRgjLdr-2" value="Pilote SPI Ã‰cran" style="rounded=0;whiteSpace=wrap;html=1;" vertex="1" parent="1">
          <mxGeometry x="592.5" y="520" width="67.5" height="40" as="geometry" />
        </mxCell>
        <mxCell id="58lbwC3LxWV0aZRgjLdr-19" style="edgeStyle=none;curved=0;rounded=0;orthogonalLoop=1;jettySize=auto;html=1;entryX=0.75;entryY=1;entryDx=0;entryDy=0;fontSize=12;startSize=8;endSize=8;" edge="1" parent="1" source="58lbwC3LxWV0aZRgjLdr-5" target="58lbwC3LxWV0aZRgjLdr-11">
          <mxGeometry relative="1" as="geometry">
            <Array as="points">
              <mxPoint x="628" y="320" />
              <mxPoint x="583" y="320" />
            </Array>
          </mxGeometry>
        </mxCell>
        <mxCell id="58lbwC3LxWV0aZRgjLdr-5" value="&lt;div&gt;Interface &lt;br&gt;&lt;/div&gt;&lt;div&gt;LCD&lt;/div&gt;" style="rounded=0;whiteSpace=wrap;html=1;" vertex="1" parent="1">
          <mxGeometry x="592.5" y="400" width="70" height="40" as="geometry" />
        </mxCell>
        <mxCell id="58lbwC3LxWV0aZRgjLdr-10" style="edgeStyle=none;curved=1;rounded=0;orthogonalLoop=1;jettySize=auto;html=1;entryX=0.25;entryY=1;entryDx=0;entryDy=0;fontSize=12;startSize=8;endSize=8;" edge="1" parent="1" source="58lbwC3LxWV0aZRgjLdr-8" target="rMrMTFMyCD8p0BETihjF-35">
          <mxGeometry relative="1" as="geometry" />
        </mxCell>
        <mxCell id="58lbwC3LxWV0aZRgjLdr-8" value="Pilote&lt;br&gt;&amp;nbsp;ESP-NOW Capteur" style="rounded=0;whiteSpace=wrap;html=1;" vertex="1" parent="1">
          <mxGeometry x="188" y="520" width="78" height="40" as="geometry" />
        </mxCell>
        <mxCell id="58lbwC3LxWV0aZRgjLdr-11" value="&lt;font style=&quot;font-size: 14px;&quot;&gt;Processus Affichage&lt;/font&gt;" style="rounded=0;whiteSpace=wrap;html=1;fontSize=16;" vertex="1" parent="1">
          <mxGeometry x="358" y="240" width="300" height="40" as="geometry" />
        </mxCell>
        <mxCell id="58lbwC3LxWV0aZRgjLdr-12" value="&lt;font style=&quot;font-size: 14px;&quot;&gt;Processus Panneau&lt;/font&gt;" style="rounded=0;whiteSpace=wrap;html=1;fontSize=16;" vertex="1" parent="1">
          <mxGeometry x="180" y="160" width="300" height="40" as="geometry" />
        </mxCell>
      </root>
    </mxGraphModel>
  </diagram>
</mxfile>
